<svg width="40.000000" height="40.000610" viewBox="0 0 40 40.0006" fill="none" xmlns="http://www.w3.org/2000/svg" xmlns:xlink="http://www.w3.org/1999/xlink">
	<desc>
			Created with Pixso.
	</desc>
	<defs/>
	<path id="Vector" d="M26.9 3.56C26.82 4.06 26.78 4.56 26.78 5.06C26.78 9.56 30.41 13.19 34.9 13.19C35.4 13.19 35.87 13.14 36.37 13.06L36.37 29.19C36.37 35.98 32.37 40 25.58 40L10.8 40C4 40 0 35.98 0 29.19L0 14.4C0 7.6 4 3.56 10.8 3.56L26.9 3.56ZM27.3 15.72C26.75 15.66 26.22 15.9 25.9 16.34L21.06 22.6L15.51 18.24C15.17 17.98 14.78 17.87 14.37 17.92C13.98 17.98 13.62 18.19 13.37 18.51L7.46 26.22L7.33 26.4C7 27.03 7.16 27.85 7.75 28.3C8.04 28.48 8.33 28.6 8.67 28.6C9.14 28.62 9.58 28.37 9.86 28L14.87 21.53L20.58 25.82L20.75 25.93C21.4 26.27 22.2 26.12 22.66 25.51L28.44 18.06L28.36 18.1C28.67 17.66 28.74 17.1 28.51 16.6C28.3 16.1 27.82 15.76 27.3 15.72ZM35.18 0C37.83 0 40 2.15 40 4.82C40 7.47 37.83 9.64 35.18 9.64C32.52 9.64 30.36 7.47 30.36 4.82C30.36 2.15 32.52 0 35.18 0Z" fill="#22616B" fill-opacity="1.000000" fill-rule="nonzero"/>
</svg>
