<svg width="40.000000" height="40.000000" viewBox="0 0 40 40" fill="none" xmlns="http://www.w3.org/2000/svg" xmlns:xlink="http://www.w3.org/1999/xlink">
	<desc>
			Created with Pixso.
	</desc>
	<defs/>
	<path id="Vector" d="M20 0C31.02 0 40 8.97 40 20.01C40 31.02 31.02 40 20 40C8.97 40 0 31.02 0 20.01C0 8.97 8.97 0 20 0ZM17.72 12.05C17.29 12.05 16.89 12.15 16.5 12.34C16.02 12.61 15.63 13.04 15.42 13.54C15.29 13.89 15.07 14.93 15.07 14.95C14.86 16.09 14.74 17.94 14.74 19.99C14.74 21.94 14.86 23.71 15.03 24.87C15.05 24.89 15.27 26.18 15.5 26.62C15.92 27.43 16.75 27.94 17.64 27.94L17.72 27.94C18.3 27.92 19.51 27.41 19.51 27.39C21.56 26.55 25.59 23.9 27.21 22.15L27.33 22.03C27.54 21.82 27.81 21.49 27.87 21.41C28.18 21.01 28.33 20.51 28.33 20.01C28.33 19.45 28.16 18.92 27.83 18.5C27.76 18.42 27.47 18.09 27.2 17.82C25.61 16.13 21.48 13.35 19.32 12.5C18.99 12.37 18.16 12.07 17.72 12.05Z" fill="#5F6064" fill-opacity="1.000000" fill-rule="nonzero"/>
</svg>
