<svg width="35" height="25" viewBox="0 0 35 25" fill="none" xmlns="http://www.w3.org/2000/svg">
<g clip-path="url(#clip0_1_183)">
<path d="M0 0H35V25.0003H0V0Z" fill="white"/>
<path d="M19.6875 -0.000442505H15.3125V10.1558H0V14.8433H15.3125V24.9995H19.6875V14.8433H35V10.1558H19.6875V-0.000442505Z" fill="#D80027"/>
<path d="M26.9189 16.8475L35 21.6578V16.8475H26.9189ZM21.3043 16.8475L35 24.9997V22.6945L25.1772 16.8475H21.3043ZM31.3519 24.9997L21.3043 19.0184V24.9997H31.3519Z" fill="#0052B4"/>
<path d="M21.3043 16.8476L35 24.9997V22.6945L25.1772 16.8476H21.3043Z" fill="white"/>
<path d="M21.3043 16.8476L35 24.9997V22.6945L25.1772 16.8476H21.3043Z" fill="#D80027"/>
<path d="M6.17565 16.8474L0 20.5234V16.8474H6.17565ZM13.6957 17.8841V24.9996H1.74255L13.6957 17.8841Z" fill="#0052B4"/>
<path d="M9.82276 16.8476L0 22.6945V24.9997L13.6957 16.8476H9.82276Z" fill="#D80027"/>
<path d="M8.0811 8.15171L0 3.34145V8.15171H8.0811ZM13.6957 8.15171L0 -0.000442505V2.30478L9.82276 8.15171H13.6957ZM3.64807 -0.000442505L13.6957 5.98081V-0.000442505H3.64807Z" fill="#0052B4"/>
<path d="M13.6957 8.15171L0 -0.000442505V2.30478L9.82276 8.15171H13.6957Z" fill="white"/>
<path d="M13.6957 8.15171L0 -0.000442505V2.30478L9.82276 8.15171H13.6957Z" fill="#D80027"/>
<path d="M28.8243 8.15211L35 4.47608V8.15211H28.8243ZM21.3043 7.11544V-0.000120163H33.2575L21.3043 7.11544Z" fill="#0052B4"/>
<path d="M25.1772 8.15197L35 2.30505V-0.000181198L21.3043 8.15197H25.1772Z" fill="#D80027"/>
</g>
<defs>
<clipPath id="clip0_1_183">
<rect width="35" height="25" fill="white"/>
</clipPath>
</defs>
</svg>
