<svg width="82.006836" height="234.141968" viewBox="0 0 82.0068 234.142" fill="none" xmlns="http://www.w3.org/2000/svg" xmlns:xlink="http://www.w3.org/1999/xlink">
	<desc>
			Created with Pixso.
	</desc>
	<defs/>
	<path id="Vector" d="M80.85 87.99C80.5 86.54 79.95 85.12 79.85 83.66C78.96 70.07 74.92 57.36 69.89 44.95C65.41 33.88 59.5 23.7 51.65 14.85C48.6 11.41 45.22 8.28 41.69 4.69C47.77 3.77 53.99 4.16 59.14 0C53.52 0.7 47.91 1.94 42.29 1.97C36.66 1.99 31 0.81 24.85 0.11C30.01 8.17 36.99 15.21 36.04 26C39.41 21.99 38.4 18.17 30.67 3.72C33.67 3.57 36.33 3.56 38.83 5.58C52.88 16.96 62.39 31.77 69.05 48.76C72.93 58.68 75.67 68.98 77.37 79.5C79.1 90.19 80 100.94 79.61 111.86C79.09 126.74 77.19 141.31 73.15 155.55C68.38 172.39 61.12 187.94 49.97 201.15C37.56 215.88 22.37 226.26 3.95 231.11C2.82 231.41 1.71 231.82 0.62 232.24C0.4 232.33 0.28 232.69 0 233.08C0.62 234.58 1.86 234.12 2.88 233.87C12.93 231.45 22.25 227.22 30.91 221.43C48.7 209.56 60.9 192.83 69.46 172.93C76.29 157.06 79.66 140.27 81.48 123.08C81.79 120.06 81.39 116.97 81.44 113.92C81.46 112.61 81.81 111.31 82 110.01C81.62 102.67 81.24 95.34 80.85 87.99Z" fill="#000000" fill-opacity="0.600000" fill-rule="nonzero"/>
</svg>
