<svg width="14.168945" height="13.459229" viewBox="0 0 14.1689 13.4592" fill="none" xmlns="http://www.w3.org/2000/svg" xmlns:xlink="http://www.w3.org/1999/xlink">
	<desc>
			Created with Pixso.
	</desc>
	<defs/>
	<path id="Vector" d="M11.27 8.37C11.09 8.55 11 8.8 11.04 9.05L11.67 12.54C11.73 12.84 11.6 13.13 11.36 13.3C11.11 13.48 10.79 13.5 10.53 13.36L7.39 11.73C7.28 11.67 7.16 11.64 7.04 11.63L6.84 11.63C6.78 11.64 6.71 11.66 6.65 11.7L3.51 13.34C3.36 13.42 3.18 13.45 3.01 13.42C2.59 13.34 2.31 12.94 2.38 12.52L3.01 9.03C3.05 8.78 2.97 8.52 2.79 8.34L0.23 5.86C0.01 5.65 -0.06 5.34 0.04 5.06C0.13 4.78 0.37 4.57 0.67 4.53L4.19 4.02C4.45 3.99 4.69 3.83 4.81 3.59L6.36 0.41C6.4 0.34 6.45 0.27 6.5 0.21L6.57 0.16C6.6 0.13 6.64 0.1 6.68 0.07L6.76 0.04L6.88 0L7.18 0C7.44 0.02 7.68 0.18 7.8 0.42L9.37 3.59C9.49 3.82 9.71 3.98 9.96 4.02L13.48 4.53C13.78 4.57 14.03 4.78 14.13 5.06C14.22 5.34 14.14 5.66 13.92 5.86L11.27 8.37Z" fill="#FEBB43" fill-opacity="1.000000" fill-rule="nonzero"/>
</svg>
